<svg xmlns="http://www.w3.org/2000/svg" width="286.709" height="110.647" viewBox="0 0 286.709 110.647">
  <g id="Group_718" data-name="Group 718" transform="translate(-9.922 -37.696)">
    <g id="Group_717" data-name="Group 717" transform="translate(9.922 37.696)">
      <g id="Group_716" data-name="Group 716">
        <path id="Path_1145" data-name="Path 1145" d="M82.159,42.809v40.8a33.764,33.764,0,0,1-4.717,17.758,32.254,32.254,0,0,1-12.96,12,41.665,41.665,0,0,1-36.956,0,31.54,31.54,0,0,1-12.883-12A33.764,33.764,0,0,1,9.925,83.608V42.967a2.324,2.324,0,0,1,.557-1.44,2.068,2.068,0,0,1,1.444-.561H29.042v42.08c0,5.758,1.521,10.158,4.563,13.358a16.37,16.37,0,0,0,12.317,4.721A16.855,16.855,0,0,0,58.4,96.405c3.038-3.2,4.559-7.6,4.559-13.358V40.967h17.2A1.853,1.853,0,0,1,82.159,42.809Z" transform="translate(-9.922 -20.089)" fill="#fff"/>
        <path id="Path_1146" data-name="Path 1146" d="M38.456,43.348a7.519,7.519,0,1,1-15.038,0H23.5a7.48,7.48,0,1,1,14.961,0Z" transform="translate(31.462 -35.829)" fill="#fff"/>
        <path id="Path_1147" data-name="Path 1147" d="M25.588,43.287a7.478,7.478,0,1,1-14.957,0,7.478,7.478,0,0,1,14.957,0Z" transform="translate(-7.749 -35.768)" fill="#fff"/>
      </g>
    </g>
    <path id="Path_21239" data-name="Path 21239" d="M49.479-17.809a17.782,17.782,0,0,1-.872,5.737A15.349,15.349,0,0,1,46.2-7.527a15.554,15.554,0,0,1-3.672,3.4,21.439,21.439,0,0,1-4.7,2.341A29.053,29.053,0,0,1,32.335-.436,44.124,44.124,0,0,1,25.841,0H10.052A3.753,3.753,0,0,1,7.5-.9,3.669,3.669,0,0,1,6.472-3.81V-55.583A3.669,3.669,0,0,1,7.5-58.5a3.753,3.753,0,0,1,2.547-.9H24.969a39.878,39.878,0,0,1,9.249.918A18.2,18.2,0,0,1,40.6-55.7a12.3,12.3,0,0,1,3.97,4.7,15.232,15.232,0,0,1,1.377,6.7,14.559,14.559,0,0,1-.551,4.062,12.174,12.174,0,0,1-1.606,3.465,11.948,11.948,0,0,1-2.593,2.754,13.176,13.176,0,0,1-3.511,1.928,15.7,15.7,0,0,1,4.659,1.606,13.183,13.183,0,0,1,3.718,2.96,13.779,13.779,0,0,1,2.5,4.246A15.376,15.376,0,0,1,49.479-17.809ZM33.873-42.823a8.844,8.844,0,0,0-.551-3.213A5.806,5.806,0,0,0,31.67-48.4a7.583,7.583,0,0,0-2.777-1.446,16.01,16.01,0,0,0-4.475-.5h-6.1v15.422h6.747a11.561,11.561,0,0,0,4.177-.62,7.215,7.215,0,0,0,2.593-1.7,6.886,6.886,0,0,0,1.538-2.524A9.191,9.191,0,0,0,33.873-42.823ZM36.948-17.4a9.414,9.414,0,0,0-.688-3.695,7.049,7.049,0,0,0-2.02-2.731,9.312,9.312,0,0,0-3.4-1.7,19.86,19.86,0,0,0-5.37-.6h-7.16V-9.226h8.721a14.664,14.664,0,0,0,4.246-.528,8.663,8.663,0,0,0,2.983-1.561,7.147,7.147,0,0,0,1.974-2.57A8.272,8.272,0,0,0,36.948-17.4ZM129.617-4.728a15.993,15.993,0,0,1-.138,2.272,6.406,6.406,0,0,1-.367,1.492,1.475,1.475,0,0,1-.6.757,1.656,1.656,0,0,1-.826.207H100.931a2.3,2.3,0,0,1-1.9-.826,4.342,4.342,0,0,1-.666-2.708V-5.646a14.6,14.6,0,0,1,.069-1.492A6.005,6.005,0,0,1,98.7-8.422a8.112,8.112,0,0,1,.551-1.262,13.867,13.867,0,0,1,.9-1.423l15.33-23.684h-14.5q-.872,0-1.4-1.1a8.712,8.712,0,0,1-.528-3.534,17.977,17.977,0,0,1,.115-2.226,5.372,5.372,0,0,1,.344-1.423,1.615,1.615,0,0,1,.6-.757,1.612,1.612,0,0,1,.872-.229h25.015a3.865,3.865,0,0,1,1.1.138,1.514,1.514,0,0,1,.757.5,2.581,2.581,0,0,1,.459,1.01,6.758,6.758,0,0,1,.161,1.606v2.249a12.858,12.858,0,0,1-.092,1.629,9.219,9.219,0,0,1-.275,1.354,6.51,6.51,0,0,1-.528,1.285q-.344.643-.8,1.377L111.533-9.271h16.156a1.721,1.721,0,0,1,.78.184,1.456,1.456,0,0,1,.62.688,4.864,4.864,0,0,1,.39,1.4A15.4,15.4,0,0,1,129.617-4.728Zm42.41,3.3a1.222,1.222,0,0,1-.459,1.01,3.147,3.147,0,0,1-1.446.528,19.6,19.6,0,0,1-2.915.161A19.886,19.886,0,0,1,164.2.115a2.587,2.587,0,0,1-1.331-.528,1.32,1.32,0,0,1-.39-1.01V-4.682a18.613,18.613,0,0,1-5.76,4.223,16.735,16.735,0,0,1-7.183,1.515,20.1,20.1,0,0,1-5.99-.849,13.49,13.49,0,0,1-4.728-2.524,11.359,11.359,0,0,1-3.1-4.154,14.131,14.131,0,0,1-1.1-5.783,13.091,13.091,0,0,1,1.4-6.219,11.385,11.385,0,0,1,4.177-4.36,20.794,20.794,0,0,1,6.908-2.547,49.359,49.359,0,0,1,9.593-.826h3.993v-2.479a13.022,13.022,0,0,0-.39-3.374,5.625,5.625,0,0,0-1.285-2.41,5.3,5.3,0,0,0-2.387-1.423,12.732,12.732,0,0,0-3.695-.459,19,19,0,0,0-5.164.643,29.613,29.613,0,0,0-4.016,1.423q-1.744.78-2.915,1.423a4.263,4.263,0,0,1-1.9.643,1.368,1.368,0,0,1-.9-.321,2.343,2.343,0,0,1-.643-.918,6.343,6.343,0,0,1-.39-1.469,12.409,12.409,0,0,1-.138-1.928,8.742,8.742,0,0,1,.229-2.249,3.464,3.464,0,0,1,.872-1.492,8.58,8.58,0,0,1,2.249-1.469,26.42,26.42,0,0,1,3.764-1.492,34.8,34.8,0,0,1,4.7-1.125,31.1,31.1,0,0,1,5.255-.436,31.386,31.386,0,0,1,8.239.941,13.894,13.894,0,0,1,5.623,2.892,11.237,11.237,0,0,1,3.213,5.026,23.485,23.485,0,0,1,1.01,7.3ZM160.69-18.956h-4.406a23.676,23.676,0,0,0-4.773.413A9.153,9.153,0,0,0,148.3-17.3a5.107,5.107,0,0,0-1.813,2,6.025,6.025,0,0,0-.574,2.685,5.162,5.162,0,0,0,1.629,4.039,6.51,6.51,0,0,0,4.521,1.469,8.465,8.465,0,0,0,4.475-1.239,18.561,18.561,0,0,0,4.154-3.626Zm49.157-19.736q0,1.652-.092,2.708a8.33,8.33,0,0,1-.275,1.652,1.617,1.617,0,0,1-.482.826,1.206,1.206,0,0,1-.757.229,2.531,2.531,0,0,1-.826-.161q-.459-.161-1.033-.344t-1.262-.344a6.668,6.668,0,0,0-1.515-.161,5.1,5.1,0,0,0-1.928.39,8.132,8.132,0,0,0-2,1.216,14.826,14.826,0,0,0-2.157,2.2,35.842,35.842,0,0,0-2.41,3.4v25.52a1.248,1.248,0,0,1-.275.8,2.025,2.025,0,0,1-.941.574,8.188,8.188,0,0,1-1.767.344,27.931,27.931,0,0,1-2.8.115,27.931,27.931,0,0,1-2.8-.115,8.188,8.188,0,0,1-1.767-.344,2.025,2.025,0,0,1-.941-.574,1.248,1.248,0,0,1-.275-.8V-42.5a1.414,1.414,0,0,1,.229-.8,1.682,1.682,0,0,1,.826-.574,6.591,6.591,0,0,1,1.538-.344,20.109,20.109,0,0,1,2.364-.115,21.219,21.219,0,0,1,2.433.115,5.516,5.516,0,0,1,1.492.344,1.683,1.683,0,0,1,.757.574,1.414,1.414,0,0,1,.229.8v5.095a32.659,32.659,0,0,1,3.029-3.787,17.131,17.131,0,0,1,2.708-2.364,8.52,8.52,0,0,1,2.57-1.216,9.9,9.9,0,0,1,2.57-.344q.6,0,1.285.069A12.47,12.47,0,0,1,207-44.82a9.423,9.423,0,0,1,1.285.367,2.543,2.543,0,0,1,.8.436,1.424,1.424,0,0,1,.367.5,3.978,3.978,0,0,1,.207.757,11.242,11.242,0,0,1,.138,1.446Q209.848-40.345,209.848-38.692Z" transform="translate(86.783 125.22)" fill="#fff"/>
    <path id="Path_1148" data-name="Path 1148" d="M114.311,105.5c-11.012-.012-17.23-2.855-19.381-4.066A30.845,30.845,0,0,1,86.1,94.051l-.1-.122a25.835,25.835,0,0,1-5.425-15.4q-.244-9.7-.488-19.413a11.406,11.406,0,0,0-3.408-7.938c-.1-.1-.2-.187-.285-.268a13.238,13.238,0,0,0-1.541-1.2,14.538,14.538,0,0,0-4.233-1.769,32.1,32.1,0,0,0-8.458-.968,32.1,32.1,0,0,0-5.4.447,35.994,35.994,0,0,0-4.831,1.155,27.2,27.2,0,0,0-3.863,1.533,8.742,8.742,0,0,0-2.31,1.509,3.529,3.529,0,0,0-.895,1.529,8.922,8.922,0,0,0-.236,2.31,12.349,12.349,0,0,0,.142,1.98,6.611,6.611,0,0,0,.4,1.509,2.41,2.41,0,0,0,.659.939,1.391,1.391,0,0,0,.919.333,4.341,4.341,0,0,0,1.956-.663c.8-.439,1.8-.923,2.993-1.46a30.678,30.678,0,0,1,4.123-1.46,19.545,19.545,0,0,1,5.3-.659,13.119,13.119,0,0,1,3.794.468,5.429,5.429,0,0,1,2.448,1.464,5.774,5.774,0,0,1,1.322,2.472,13.472,13.472,0,0,1,.4,3.465v2.546h-4.1a50.743,50.743,0,0,0-9.849.846,21.438,21.438,0,0,0-7.092,2.615,11.692,11.692,0,0,0-4.286,4.477,13.44,13.44,0,0,0-1.44,6.388,14.535,14.535,0,0,0,1.13,5.937,11.7,11.7,0,0,0,3.18,4.266,13.881,13.881,0,0,0,4.855,2.59,20.64,20.64,0,0,0,6.153.87,17.177,17.177,0,0,0,7.373-1.553,17.477,17.477,0,0,0,1.627-.862,19.262,19.262,0,0,0,4.632-3.839,34.758,34.758,0,0,0,2.05,4.4c5.909,10.638,15.945,15.351,19.735,16.88a44.016,44.016,0,0,0,21.569,2.5c15.652-2.058,26.64-12.155,26.1-13.171C140.231,97.792,130.061,105.514,114.311,105.5ZM69.088,81a19.113,19.113,0,0,1-4.262,3.725A8.722,8.722,0,0,1,60.231,86a6.7,6.7,0,0,1-4.644-1.509,5.3,5.3,0,0,1-1.671-4.148,6.163,6.163,0,0,1,.59-2.757,5.213,5.213,0,0,1,1.862-2.05,9.391,9.391,0,0,1,3.3-1.273,24.172,24.172,0,0,1,4.9-.423h4.522Z" transform="translate(99.354 36.053)" fill="#fff" fill-rule="evenodd"/>
    <path id="Path_1149" data-name="Path 1149" d="M70.751,61.119c-.638-.671-3.77.012-5.181.317-.427.094-.529-.277-.163-.586,2.359-2.017,6.551-1.9,7.092-1.35s.321,4.766-1.858,6.974c-.333.342-.7.211-.573-.207.407-1.383,1.318-4.477.683-5.148" transform="translate(169.46 73.396)" fill="#fff" fill-rule="evenodd"/>
  </g>
</svg>
